<?xml version="1.0" encoding="utf-8"?>
<!-- Generator: Adobe Illustrator 22.1.0, SVG Export Plug-In . SVG Version: 6.00 Build 0)  -->
<svg version="1.1" id="Слой_1" xmlns="http://www.w3.org/2000/svg" xmlns:xlink="http://www.w3.org/1999/xlink" x="0px" y="0px"
	 viewBox="0 0 464 72.6" style="enable-background:new 0 0 464 72.6;" xml:space="preserve">
<style type="text/css">
	.st0{fill:#1B539C;}
	.st1{fill:#E62528;}
</style>
<title>лого европочты123456</title>
<path class="st0" d="M67.3,18.9l4.1-2.3L45.2,1.4L19,16.5l4,2.3l3.6,2L45.2,9.9l18.6,11L67.3,18.9z"/>
<polygon class="st0" points="48.3,35.2 48.3,38.5 48.3,57.5 55.9,53.2 55.9,38.1 67.3,31.6 67.3,46.6 74.9,42.2 74.9,27.3 
	74.9,20.1 74.8,20.1 "/>
<polygon class="st0" points="48.3,62.6 48.3,62.6 48.3,70.1 48.3,70.1 55.9,65.8 74.9,54.9 74.9,47.3 55.9,58.3 "/>
<polygon class="st1" points="42.1,69.9 42.1,69.7 42.1,62.7 42.1,62.8 23,51.9 23,45.1 42.1,56 42.1,49.1 23,38.2 23,31.2 
	42.1,42.1 42.1,35.2 23,24.4 15.5,20.1 15.4,20.1 15.4,27.3 15.4,33.1 15.4,41.1 15.4,45 15.4,45.2 15.4,54.4 15.4,54.5 "/>
<polygon class="st1" points="108.2,44.1 128.7,44.1 128.7,36.4 108.2,36.4 108.2,31.1 130.9,31.1 130.9,23.5 99.9,23.5 99.9,57.7 
	131.8,57.7 131.8,49.9 108.2,49.9 "/>
<path class="st1" d="M167.6,38.4c1.5-1.4,2.4-3.5,2.2-5.6c0-5.6-4.3-9.3-10.7-9.3h-21.9v34.2h23.5c6.4,0,11.4-4.7,11.4-10.8
	C172.1,43,170.6,40.2,167.6,38.4z M159.3,36.3h-13.7v-5.2h13.1c2.6,0,2.9,1.9,2.9,2.6C161.7,35.1,160.7,36.2,159.3,36.3L159.3,36.3z
	 M145.6,50v-6.2h15.1c1.7-0.1,3.1,1.1,3.3,2.7c0,0.1,0,0.3,0,0.4c0,1.9-1.4,3.1-3.4,3.1L145.6,50z"/>
<path class="st1" d="M196.7,23.5h-20.1v34.2h8.4v-7.4h11.7c8.3,0,14.2-5.5,14.2-13.3S204.9,23.5,196.7,23.5z M185,31.2h11.4
	c3.7,0,6.1,2.3,6.1,5.8s-2.3,5.5-6.1,5.5H185V31.2z"/>
<path class="st1" d="M232.9,22.8c-10.9,0-19.1,7.7-19.1,17.9s8.2,17.9,19.1,17.9S252,50.8,252,40.6S243.8,22.8,232.9,22.8z
	 M232.9,51.3c-6.4,0-10.7-4.3-10.7-10.6s4.3-10.6,10.7-10.6s10.7,4.3,10.7,10.6S239.3,51.2,232.9,51.3L232.9,51.3z"/>
<polygon class="st0" points="255.8,57.7 264.1,57.7 264.1,31 281.1,31 281.1,57.7 289.5,57.7 289.5,23.5 255.8,23.5 "/>
<path class="st0" d="M312.9,22.8c-10.9,0-19.1,7.7-19.1,17.9s8.2,17.9,19.1,17.9s19.1-7.7,19.1-17.9S323.7,22.8,312.9,22.8z
	 M312.9,51.3c-6.4,0-10.7-4.3-10.7-10.6s4.3-10.6,10.7-10.6s10.7,4.3,10.7,10.6S319.3,51.2,312.9,51.3L312.9,51.3z"/>
<path class="st0" d="M360.4,42.8h-10.3c-4.2,0-6.3-2.2-6.3-6.5V23.5h-8.4V37c0,8.1,5.5,13.5,13.6,13.5h11.5v7.2h8.4V23.5h-8.4
	L360.4,42.8z"/>
<polygon class="st0" points="407.9,23.5 372.5,23.5 372.5,31.1 386,31.1 386,57.7 394.4,57.7 394.4,31.1 407.9,31.1 "/>
<path class="st0" d="M431.5,23.5h-12.8l-14.9,34.2h9l2.2-5.1h20l2.2,5.1h8.8L431.5,23.5z M418.1,45.2L424,31h2l5.7,14.2H418.1z"/>
</svg>
